name Walk3.mot
datacolumns 19
datarows 17
range 1.95000000 1.96600000
endheader

                time	   L_ground_force_vx	   L_ground_force_vy	   L_ground_force_vz	   L_ground_force_px	   L_ground_force_py	   L_ground_force_pz	   R_ground_force_vx	   R_ground_force_vy	   R_ground_force_vz	   R_ground_force_px	   R_ground_force_py	   R_ground_force_pz	   L_ground_torque_x	   L_ground_torque_y	   L_ground_torque_z	   R_ground_torque_x	   R_ground_torque_y	   R_ground_torque_z	
          1.95000000	          0.06062437	          0.23272688	         -0.00509578	         -0.00009939	          0.00000000	         -0.00001443	         -2.21246932	        523.67321226	        -33.22091663	          0.12646126	          0.00000000	          0.08130166	          0.00000000	         -0.00074782	          0.00000000	          0.00000000	          0.53238833	          0.00000000	
          1.95100000	          0.05916833	          0.22791517	         -0.00491264	         -0.00014401	          0.00000000	         -0.00002008	         -1.93749290	        522.94215524	        -33.18272344	          0.12678188	          0.00000000	          0.08125828	          0.00000000	         -0.00070019	          0.00000000	          0.00000000	          0.53880686	          0.00000000	
          1.95200000	          0.05761251	          0.22265134	         -0.00472652	         -0.00018429	          0.00000000	         -0.00002518	         -1.66836169	        522.25042452	        -33.13926171	          0.12710748	          0.00000000	          0.08121340	          0.00000000	         -0.00065396	          0.00000000	          0.00000000	          0.54542161	          0.00000000	
          1.95300000	          0.05597126	          0.21699372	         -0.00453836	         -0.00022045	          0.00000000	         -0.00002974	         -1.40486071	        521.59898230	        -33.09036765	          0.12743805	          0.00000000	          0.08116699	          0.00000000	         -0.00060919	          0.00000000	          0.00000000	          0.55224601	          0.00000000	
          1.95400000	          0.05425806	          0.21099716	         -0.00434904	         -0.00025271	          0.00000000	         -0.00003381	         -1.14677713	        520.98874186	        -33.03589619	          0.12777353	          0.00000000	          0.08111903	          0.00000000	         -0.00056592	          0.00000000	          0.00000000	          0.55929300	          0.00000000	
          1.95500000	          0.05248550	          0.20471314	         -0.00415940	         -0.00028126	          0.00000000	         -0.00003740	         -0.89390078	        520.42056367	        -32.97572119	          0.12811389	          0.00000000	          0.08106949	          0.00000000	         -0.00052420	          0.00000000	          0.00000000	          0.56657495	          0.00000000	
          1.95600000	          0.05066531	          0.19818985	         -0.00397015	         -0.00030633	          0.00000000	         -0.00004054	         -0.64602441	        519.89525164	        -32.90973560	          0.12845908	          0.00000000	          0.08101836	          0.00000000	         -0.00048404	          0.00000000	          0.00000000	          0.57410355	          0.00000000	
          1.95700000	          0.04880843	          0.19147229	         -0.00378200	         -0.00032811	          0.00000000	         -0.00004327	         -0.40294331	        519.41355017	        -32.83785173	          0.12880905	          0.00000000	          0.08096564	          0.00000000	         -0.00044547	          0.00000000	          0.00000000	          0.58188998	          0.00000000	
          1.95800000	          0.04692500	          0.18460235	         -0.00359555	         -0.00034679	          0.00000000	         -0.00004560	         -0.16445468	        518.97614172	        -32.76000122	          0.12916373	          0.00000000	          0.08091133	          0.00000000	         -0.00040849	          0.00000000	          0.00000000	          0.58994491	          0.00000000	
          1.95900000	          0.04502438	          0.17761896	         -0.00341137	         -0.00036258	          0.00000000	         -0.00004755	          0.06964302	        518.58364480	        -32.67613491	          0.12952307	          0.00000000	          0.08085542	          0.00000000	         -0.00037312	          0.00000000	          0.00000000	          0.59827857	          0.00000000	
          1.96000000	          0.04311523	          0.17055814	         -0.00322995	         -0.00037565	          0.00000000	         -0.00004917	          0.29955051	        518.23661237	        -32.58622242	          0.12988700	          0.00000000	          0.08079793	          0.00000000	         -0.00033934	          0.00000000	          0.00000000	          0.60690066	          0.00000000	
          1.96100000	          0.04120547	          0.16345316	         -0.00305176	         -0.00038620	          0.00000000	         -0.00005046	          0.52546793	        517.93553127	        -32.49025179	          0.13025545	          0.00000000	          0.08073888	          0.00000000	         -0.00030715	          0.00000000	          0.00000000	          0.61582012	          0.00000000	
          1.96200000	          0.03930239	          0.15633463	         -0.00287719	         -0.00039438	          0.00000000	         -0.00005145	          0.74759507	        517.68082262	        -32.38822885	          0.13062835	          0.00000000	          0.08067829	          0.00000000	         -0.00027654	          0.00000000	          0.00000000	          0.62504486	          0.00000000	
          1.96300000	          0.03741260	          0.14923059	         -0.00270658	         -0.00040038	          0.00000000	         -0.00005216	          0.96613179	        517.47284288	        -32.28017690	          0.13100564	          0.00000000	          0.08061618	          0.00000000	         -0.00024748	          0.00000000	          0.00000000	          0.63458138	          0.00000000	
          1.96400000	          0.03554212	          0.14216665	         -0.00254026	         -0.00040436	          0.00000000	         -0.00005261	          1.18127899	        517.31188454	        -32.16613629	          0.13138724	          0.00000000	          0.08055258	          0.00000000	         -0.00021996	          0.00000000	          0.00000000	          0.64443464	          0.00000000	
          1.96500000	          0.03369636	          0.13516611	         -0.00237847	         -0.00040647	          0.00000000	         -0.00005283	          1.39323985	        517.19817602	        -32.04616440	          0.13177308	          0.00000000	          0.08048750	          0.00000000	         -0.00019395	          0.00000000	          0.00000000	          0.65460804	          0.00000000	
          1.96600000	          0.03188021	          0.12825003	         -0.00222146	         -0.00040687	          0.00000000	         -0.00005282	          1.60222107	        517.13188125	        -31.92033569	          0.13216309	          0.00000000	          0.08042099	          0.00000000	         -0.00016942	          0.00000000	          0.00000000	          0.66510363	          0.00000000	
